<?xml version="1.0" encoding="UTF-8" standalone="no"?>
<svg
   xmlns:dc="http://purl.org/dc/elements/1.1/"
   xmlns:cc="http://creativecommons.org/ns#"
   xmlns:rdf="http://www.w3.org/1999/02/22-rdf-syntax-ns#"
   xmlns:svg="http://www.w3.org/2000/svg"
   xmlns="http://www.w3.org/2000/svg"
   xmlns:sodipodi="http://sodipodi.sourceforge.net/DTD/sodipodi-0.dtd"
   xmlns:inkscape="http://www.inkscape.org/namespaces/inkscape"
   width="450.2236"
   height="289.72046"
   id="SvgGdi_output"
   version="1.1"
   sodipodi:docname="concatfile-firstorder.svg"
   inkscape:version="0.92.3 (2405546, 2018-03-11)">
  <metadata
     id="metadata47">
    <rdf:RDF>
      <cc:Work
         rdf:about="">
        <dc:format>image/svg+xml</dc:format>
        <dc:type
           rdf:resource="http://purl.org/dc/dcmitype/StillImage" />
        <dc:title></dc:title>
      </cc:Work>
    </rdf:RDF>
  </metadata>
  <sodipodi:namedview
     pagecolor="#ffffff"
     bordercolor="#666666"
     borderopacity="1"
     objecttolerance="10"
     gridtolerance="10"
     guidetolerance="10"
     inkscape:pageopacity="0"
     inkscape:pageshadow="2"
     inkscape:window-width="3000"
     inkscape:window-height="1875"
     id="namedview45"
     showgrid="false"
     inkscape:zoom="3.5704346"
     inkscape:cx="202.70557"
     inkscape:cy="157.52366"
     inkscape:window-x="-13"
     inkscape:window-y="-13"
     inkscape:window-maximized="1"
     inkscape:current-layer="SvgGdi_output"
     fit-margin-top="0"
     fit-margin-left="0"
     fit-margin-right="0"
     fit-margin-bottom="0" />
  <rect
     id="background"
     height="100%"
     style="fill:#ffffff"
     width="100%"
     y="0"
     x="0" />
  <g
     id="root_group">
    <line
       y1="38"
       style="fill:none;stroke:#a9a9a9;stroke-width:2;stroke-miterlimit:9"
       id="54"
       x2="320"
       y2="38"
       x1="236" />
    <line
       y1="38"
       style="fill:none;stroke:#a9a9a9;stroke-width:2;stroke-miterlimit:9"
       id="55"
       x2="160"
       y2="38"
       x1="76" />
    <line
       y1="198"
       style="fill:none;stroke:#a9a9a9;stroke-width:2;stroke-miterlimit:9"
       id="56"
       x2="160"
       y2="38"
       x1="76" />
    <path
       style="fill:none;stroke:#a9a9a9;stroke-width:2;stroke-miterlimit:9"
       transform="matrix(2,0,0,2,328,8)"
       id="57"
       d="M 10.158,33.2 C 3.4054,31.7591 -1.861,26.4692 -3.271,19.71"
       inkscape:connector-curvature="0" />
    <circle
       id="58"
       cy="15"
       cx="15"
       transform="matrix(2,0,0,2,328,8)"
       style="fill:#9b5bb3"
       r="15" />
    <path
       style="fill:#ffffff;fill-rule:evenodd"
       transform="matrix(2,0,0,2,328,8)"
       id="59"
       d="M 23.75,9.1 19.5587,11.5211 V 18.3937 L 23.75,20.8147 Z"
       inkscape:connector-curvature="0" />
    <path
       style="fill:#ffffff;fill-rule:evenodd"
       transform="matrix(2,0,0,2,328,8)"
       id="60"
       d="M 8.6927,9.2 H 15.7194 C 17.19,9.2 18.3739,10.4337 18.3739,11.9661 V 17.8234 C 18.3739,19.3558 17.19,20.5893 15.7194,20.5893 H 8.692701 C 7.222101,20.5893 6.038201,19.3558 6.038201,17.8234 V 11.9661 C 6.038201,10.4337 7.222101,9.199999 8.692701,9.199999 Z"
       inkscape:connector-curvature="0" />
    <circle
       id="67"
       cy="15"
       cx="15"
       transform="matrix(2,0,0,2,168,8)"
       style="fill:#eec04b"
       r="15" />
    <path
       style="fill:#ffffff;fill-rule:evenodd"
       transform="matrix(2,0,0,2,168,8)"
       id="68"
       d="M 12.246,6.0137 V 6.019559 C 12.05806,6.020259 11.89471,6.040434 11.76748,6.066434 10.86869,6.352735 10.89631,6.934374 9.87688,7.685534 8.863379,8.264335 8.35338,7.819914 7.61518,8.419914 6.87845,9.015514 7.39292,10.38251 7.08393,10.64841 6.77722,11.18001 5.82553,11.65471 5.65233,12.32611 5.50916,13.18481 6.04191,13.79701 6.02147,14.53311 6.08287,15.14641 5.41127,15.49489 5.5078,15.99211 5.79702,16.80421 6.35438,17.29221 6.6172,17.51751 6.663351,17.54951 6.700028,17.5985 6.714856,17.6015 6.790713,17.792 6.858586,17.98645 6.955086,18.16595 6.949606,18.13995 6.948576,18.11382 6.943367,18.08782 6.998228,18.30542 7.055077,18.52401 7.132816,18.73821 8.683116,22.09901 12.81412,24.68611 17.34182,24.11711 19.54102,23.84771 22.82442,22.33171 24.16602,18.73821 23.22044,19.58671 21.53152,20.32421 20.77732,20.38081 23.33002,19.10511 24.70712,16.93741 24.32031,13.97461 23.79154,15.23341 23.09341,16.20131 22.22071,16.86521 24.07451,13.97551 23.75691,12.48131 22.38478,10.83981 23.36615,13.53881 22.09719,16.53431 19.33208,18.66401 20.45238,18.78541 21.51657,18.51614 22.50198,17.71284 21.01318,19.37354 19.14968,20.20834 17.01368,20.43554 18.03358,21.30254 19.01818,21.69454 19.95898,21.52734 17.34458,22.24884 15.15478,21.45428 12.49018,18.80074 12.3507,19.51504 13.10514,20.62754 13.88278,21.33784 9.373278,19.38284 8.976177,13.29584 14.46872,11.79294 14.47202,11.79294 14.47518,11.79384 14.47848,11.79294 17.74978,13.70674 21.86528,13.58084 22.05078,12.34372 22.50885,10.86082 19.96508,7.805223 16.16208,7.007823 15.4618,6.871123 14.79228,6.817344 14.15428,6.835943 14.16706,6.835943 14.17858,6.836182 14.19139,6.826178 13.58399,6.177278 12.80989,6.011678 12.24609,6.013678 Z M 17.17769,9.046878 C 17.72373,9.046878 18.22259,9.543848 18.22259,10.08988 18.22259,10.63598 17.72371,11.13288 17.17769,11.13288 16.63165,11.13288 16.13469,10.63601 16.13469,10.08988 16.13474,9.543879 16.63162,9.046778 17.17769,9.046878 Z"
       inkscape:connector-curvature="0" />
    <circle
       id="69"
       cy="38"
       cx="168"
       style="fill:none;stroke:#a9a9a9;stroke-width:4;stroke-miterlimit:9"
       r="6" />
    <circle
       id="70"
       cy="38"
       cx="168"
       style="fill:#ffffff"
       r="6" />
    <text
       id="71"
       x="168"
       y="78"
       style="font-size:21px;font-family:'Microsoft Sans Serif';fill:#000000"
       clip-path="url(#73_text_clipper)">
      <tspan
         dy="15.75pt"
         id="75">Concat</tspan>
    </text>
    <path
       d="M 31.179,5.2 C 34.9985,11.0918 34.9814,18.682 31.13552,24.557"
       style="fill:none;stroke:#a9a9a9;stroke-width:2;stroke-miterlimit:9"
       transform="matrix(2,0,0,2,8,8)"
       id="77"
       inkscape:connector-curvature="0" />
    <circle
       id="78"
       cy="15"
       cx="15"
       transform="matrix(2,0,0,2,8,8)"
       style="fill:#5bb27e"
       r="15" />
    <path
       d="M 18.422,13 13.4357,18.5006 10.8556,15.9868 6.500101,20.5001 23.9571,20.48582 Z"
       style="fill:#ffffff;fill-rule:evenodd"
       transform="matrix(2,0,0,2,8,8)"
       id="79"
       inkscape:connector-curvature="0" />
    <circle
       id="80"
       cy="10.96"
       cx="10.92"
       transform="matrix(2,0,0,2,8,8)"
       style="fill:#ffffff"
       r="2.75" />
    <path
       d="M 31.179,5.2 C 34.9985,11.0918 34.9814,18.682 31.13552,24.557"
       style="fill:none;stroke:#a9a9a9;stroke-width:2;stroke-miterlimit:9"
       transform="matrix(2,0,0,2,8,168)"
       id="89"
       inkscape:connector-curvature="0" />
    <circle
       id="90"
       cy="15"
       cx="15"
       transform="matrix(2,0,0,2,8,168)"
       style="fill:#5bb27e"
       r="15" />
    <path
       d="M 18.422,13 13.4357,18.5006 10.8556,15.9868 6.500101,20.5001 23.9571,20.48582 Z"
       style="fill:#ffffff;fill-rule:evenodd"
       transform="matrix(2,0,0,2,8,168)"
       id="91"
       inkscape:connector-curvature="0" />
    <circle
       id="92"
       cy="10.96"
       cx="10.92"
       transform="matrix(2,0,0,2,8,168)"
       style="fill:#ffffff"
       r="2.75" />
  </g>
  <defs
     id="clips_hatches_and_gradients">
    <clipPath
       id="63_text_clipper">
      <rect
         x="328"
         y="78"
         width="120.22"
         height="26.389999"
         id="64" />
    </clipPath>
    <clipPath
       id="73_text_clipper">
      <rect
         x="168"
         y="78"
         width="75.529999"
         height="26.389999"
         id="74" />
    </clipPath>
    <clipPath
       id="85_text_clipper">
      <rect
         x="8"
         y="78"
         width="119.04"
         height="26.389999"
         id="86" />
    </clipPath>
    <clipPath
       id="97_text_clipper">
      <rect
         x="8"
         y="238"
         width="119.04"
         height="26.389999"
         id="98" />
    </clipPath>
  </defs>
  <text
     xml:space="preserve"
     style="font-size:20.91734123px;line-height:1.25;font-family:sans-serif;-inkscape-font-specification:sans-serif;letter-spacing:0px;word-spacing:0px;fill:#000000;stroke-width:1.24507987px"
     x="8.425375"
     y="98.939819"
     id="text4534"><tspan
       sodipodi:role="line"
       id="tspan4532"
       x="8.425375"
       y="98.939819"
       style="font-family:'Microsoft Sans Serif';-inkscape-font-specification:'Microsoft Sans Serif'">FileCapture</tspan><tspan
       sodipodi:role="line"
       x="8.425375"
       y="125.32864"
       id="tspan4536"
       style="font-family:'Microsoft Sans Serif';-inkscape-font-specification:'Microsoft Sans Serif'">(file1.avi)</tspan></text>
  <text
     xml:space="preserve"
     style="font-size:20.91734123px;line-height:1.25;font-family:sans-serif;-inkscape-font-specification:sans-serif;letter-spacing:0px;word-spacing:0px;fill:#000000;stroke-width:1.24507987px"
     x="8.425375"
     y="258.93982"
     id="text4534-0"><tspan
       sodipodi:role="line"
       id="tspan4532-1"
       x="8.425375"
       y="258.93982"
       style="font-family:'Microsoft Sans Serif';-inkscape-font-specification:'Microsoft Sans Serif'">FileCapture</tspan><tspan
       sodipodi:role="line"
       x="8.425375"
       y="285.32864"
       id="tspan4536-5"
       style="font-family:'Microsoft Sans Serif';-inkscape-font-specification:'Microsoft Sans Serif'">(file2.avi)</tspan></text>
  <text
     xml:space="preserve"
     style="font-size:20.99992371px;line-height:1.25;font-family:sans-serif;-inkscape-font-specification:sans-serif;letter-spacing:0px;word-spacing:0px;fill:#000000;stroke-width:1.24999559px"
     x="328"
     y="98.999947"
     id="text4534-9"><tspan
       sodipodi:role="line"
       id="tspan4532-3"
       x="328"
       y="98.999947"
       style="font-family:'Microsoft Sans Serif';-inkscape-font-specification:'Microsoft Sans Serif'">VideoWriter</tspan><tspan
       sodipodi:role="line"
       x="328"
       y="125.49294"
       id="tspan4536-3"
       style="font-family:'Microsoft Sans Serif';-inkscape-font-specification:'Microsoft Sans Serif'">(merge.avi)</tspan></text>
</svg>
