<?xml version="1.0" encoding="UTF-8" standalone="no"?>
<svg
   xmlns:dc="http://purl.org/dc/elements/1.1/"
   xmlns:cc="http://creativecommons.org/ns#"
   xmlns:rdf="http://www.w3.org/1999/02/22-rdf-syntax-ns#"
   xmlns:svg="http://www.w3.org/2000/svg"
   xmlns="http://www.w3.org/2000/svg"
   xmlns:sodipodi="http://sodipodi.sourceforge.net/DTD/sodipodi-0.dtd"
   xmlns:inkscape="http://www.inkscape.org/namespaces/inkscape"
   width="364.42294"
   height="160"
   id="SvgGdi_output"
   version="1.1"
   sodipodi:docname="framepicker.svg"
   inkscape:version="0.92.3 (2405546, 2018-03-11)">
  <metadata
     id="metadata61">
    <rdf:RDF>
      <cc:Work
         rdf:about="">
        <dc:format>image/svg+xml</dc:format>
        <dc:type
           rdf:resource="http://purl.org/dc/dcmitype/StillImage" />
        <dc:title />
      </cc:Work>
    </rdf:RDF>
  </metadata>
  <sodipodi:namedview
     pagecolor="#ffffff"
     bordercolor="#666666"
     borderopacity="1"
     objecttolerance="10"
     gridtolerance="10"
     guidetolerance="10"
     inkscape:pageopacity="0"
     inkscape:pageshadow="2"
     inkscape:window-width="3000"
     inkscape:window-height="1875"
     id="namedview59"
     showgrid="false"
     inkscape:zoom="2.5439219"
     inkscape:cx="142.27617"
     inkscape:cy="137.64996"
     inkscape:window-x="-13"
     inkscape:window-y="-13"
     inkscape:window-maximized="1"
     inkscape:current-layer="SvgGdi_output"
     fit-margin-top="0"
     fit-margin-left="0"
     fit-margin-right="0"
     fit-margin-bottom="0" />
  <defs
     id="clips_hatches_and_gradients">
    <clipPath
       id="12_text_clipper">
      <rect
         x="486"
         y="76"
         width="116.41"
         height="26.389999"
         id="13" />
    </clipPath>
    <clipPath
       id="24_text_clipper">
      <rect
         x="326"
         y="76"
         width="80.459999"
         height="26.389999"
         id="25" />
    </clipPath>
    <clipPath
       id="37_text_clipper">
      <rect
         x="166"
         y="76"
         width="104.49"
         height="26.389999"
         id="38" />
    </clipPath>
    <clipPath
       id="50_text_clipper">
      <rect
         x="166"
         y="236"
         width="95.449997"
         height="26.389999"
         id="51" />
    </clipPath>
    <clipPath
       id="63_text_clipper">
      <rect
         x="6"
         y="76"
         width="119.04"
         height="26.389999"
         id="64" />
    </clipPath>
    <clipPath
       id="76_text_clipper">
      <rect
         x="6"
         y="236"
         width="99.559998"
         height="26.389999"
         id="77" />
    </clipPath>
    <clipPath
       id="136_text_clipper">
      <rect
         x="488"
         y="718"
         width="116.41"
         height="26.389999"
         id="137" />
    </clipPath>
    <clipPath
       id="168_text_clipper">
      <rect
         x="328"
         y="718"
         width="80.459999"
         height="26.389999"
         id="169" />
    </clipPath>
    <clipPath
       id="196_text_clipper">
      <rect
         x="168"
         y="718"
         width="104.49"
         height="26.389999"
         id="197" />
    </clipPath>
    <clipPath
       id="206_text_clipper">
      <rect
         x="168"
         y="878"
         width="95.449997"
         height="26.389999"
         id="207" />
    </clipPath>
    <clipPath
       id="232_text_clipper">
      <rect
         x="8"
         y="718"
         width="83.940002"
         height="52.790001"
         id="233" />
    </clipPath>
    <clipPath
       id="238_text_clipper">
      <rect
         x="8"
         y="741.77002"
         width="83.940002"
         height="52.790001"
         id="239" />
    </clipPath>
    <clipPath
       id="248_text_clipper">
      <rect
         x="8"
         y="878"
         width="99.559998"
         height="26.389999"
         id="249" />
    </clipPath>
  </defs>
  <g
     transform="matrix(0.62234646,0,0,0.62234646,-4.9787717,-403.28051)"
     id="g1300">
    <line
       y1="678"
       style="fill:none;stroke:#a9a9a9;stroke-width:2;stroke-miterlimit:9"
       id="87"
       x2="480"
       y2="678"
       x1="396" />
    <line
       y1="678"
       style="fill:none;stroke:#a9a9a9;stroke-width:2;stroke-miterlimit:9"
       id="90"
       x2="320"
       y2="678"
       x1="236" />
    <line
       y1="838"
       style="fill:none;stroke:#a9a9a9;stroke-width:2;stroke-miterlimit:9"
       id="91"
       x2="320"
       y2="678"
       x1="236" />
    <line
       y1="678"
       style="fill:none;stroke:#a9a9a9;stroke-width:2;stroke-miterlimit:9"
       id="93"
       x2="160"
       y2="678"
       x1="76" />
    <line
       y1="838"
       style="fill:none;stroke:#a9a9a9;stroke-width:2;stroke-miterlimit:9"
       id="94"
       x2="160"
       y2="838"
       x1="76" />
    <path
       d="M 508.316,714.4 C 494.8108,711.5182 484.278,700.9384 481.458,687.42"
       style="fill:none;stroke:#a9a9a9;stroke-width:4;stroke-miterlimit:9"
       id="130"
       inkscape:connector-curvature="0" />
    <circle
       id="131"
       cy="678"
       cx="518"
       style="fill:#9b5bb3;stroke-width:2"
       r="30" />
    <path
       d="M 524.844,674 514.8714,685.0012 509.7112,679.9736 501.0002,689.0002 535.9142,688.97164 Z"
       style="fill:#ffffff;fill-rule:evenodd;stroke-width:2"
       id="132"
       inkscape:connector-curvature="0" />
    <circle
       id="133"
       cy="669.91998"
       cx="509.84"
       style="fill:#ffffff;stroke-width:2"
       r="5.5" />
    <text
       id="134"
       x="488"
       y="718"
       style="font-size:21px;font-family:'Microsoft Sans Serif';fill:#000000"
       clip-path="url(#136_text_clipper)">
      <tspan
         dy="15.75pt"
         id="138">SaveImage</tspan>
    </text>
    <circle
       id="164"
       cy="678"
       cx="358"
       style="fill:#eec04b;stroke-width:2"
       r="30" />
    <path
       d="M 352.492,660.0274 V 660.03912 C 352.11612,660.04052 351.78942,660.08087 351.53496,660.13287 349.73738,660.70547 349.79262,661.86875 347.75376,663.37107 345.72676,664.52867 344.70676,663.63983 343.23036,664.83983 341.7569,666.03103 342.78584,668.76502 342.16786,669.29682 341.55444,670.36002 339.65106,671.30942 339.30466,672.65222 339.01832,674.36962 340.08382,675.59402 340.04294,677.06622 340.16574,678.29282 338.82254,678.98978 339.0156,679.98422 339.59404,681.60842 340.70876,682.58442 341.2344,683.03502 341.3267,683.09902 341.40006,683.197 341.42971,683.203 341.58143,683.584 341.71717,683.9729 341.91017,684.3319 341.89921,684.2799 341.89715,684.22764 341.88673,684.17564 341.99646,684.61084 342.11015,685.04802 342.26563,685.47642 345.36623,692.19802 353.62824,697.37222 362.68364,696.23422 367.08204,695.69542 373.64884,692.66342 376.33204,685.47642 374.44088,687.17342 371.06304,688.64842 369.55464,688.76162 374.66004,686.21022 377.41424,681.87482 376.64062,675.94922 375.58308,678.46682 374.18682,680.40262 372.44142,681.73042 376.14902,675.95102 375.51382,672.96262 372.76956,669.67962 374.7323,675.07762 372.19438,681.06862 366.66416,685.32802 368.90476,685.57082 371.03314,685.03228 373.00396,683.42568 370.02636,686.74708 366.29936,688.41668 362.02736,688.87108 364.06716,690.60508 366.03636,691.38908 367.91796,691.05468 362.68916,692.49768 358.30956,690.90856 352.98036,685.60148 352.7014,687.03008 354.21028,689.25508 355.76556,690.67568 346.74656,686.76568 345.95235,674.59168 356.93744,671.58588 356.94404,671.58588 356.95036,671.58768 356.95696,671.58588 363.49956,675.41348 371.73056,675.16168 372.10156,672.68744 373.0177,669.72164 367.93016,663.61045 360.32416,662.01565 358.9236,661.74225 357.58456,661.63469 356.30856,661.67189 356.33412,661.67189 356.35716,661.67236 356.38278,661.65236 355.16798,660.35456 353.61978,660.02336 352.49218,660.02736 Z M 362.35538,666.09376 C 363.44746,666.09376 364.44518,667.0877 364.44518,668.17976 364.44518,669.27196 363.44742,670.26576 362.35538,670.26576 361.2633,670.26576 360.26938,669.27202 360.26938,668.17976 360.26948,667.08776 361.26324,666.09356 362.35538,666.09376 Z"
       style="fill:#ffffff;fill-rule:evenodd;stroke-width:2"
       id="165"
       inkscape:connector-curvature="0" />
    <text
       id="166"
       x="328"
       y="718"
       style="font-size:21px;font-family:'Microsoft Sans Serif';fill:#000000"
       clip-path="url(#168_text_clipper)">
      <tspan
         dy="15.75pt"
         id="170">Sample</tspan>
    </text>
    <circle
       id="191"
       cy="678"
       cx="198"
       style="fill:#449adf;stroke-width:2"
       r="30" />
    <path
       d="M 204.844,674 194.8714,685.0012 189.7112,679.9736 181.0002,689.0002 215.9142,688.97164 Z"
       style="fill:#ffffff;fill-rule:evenodd;stroke-width:2"
       id="192"
       inkscape:connector-curvature="0" />
    <circle
       id="193"
       cy="669.91998"
       cx="189.84"
       style="fill:#ffffff;stroke-width:2"
       r="5.5" />
    <text
       id="194"
       x="168"
       y="718"
       style="font-size:21px;font-family:'Microsoft Sans Serif';fill:#000000"
       clip-path="url(#196_text_clipper)">
      <tspan
         dy="15.75pt"
         id="198">Grayscale</tspan>
    </text>
    <circle
       id="200-3"
       cy="838"
       cx="198"
       style="fill:#eec04b;stroke-width:2"
       r="30" />
    <circle
       id="201"
       cy="838"
       cx="198"
       style="fill:none;stroke:#a9a9a9;stroke-width:4;stroke-miterlimit:9"
       r="30" />
    <path
       id="202"
       d="M 190.122,829.526 C 190.122,826.6996 192.4904,823.4452 195.5596,822.8016 198.8288,821.97796 202.5748,823.76396 203.8168,826.9366 204.94786,829.6052 203.94466,832.8664 201.6906,834.625 200.33158,835.90728 198.2786,836.56288 197.5282,838.4058 196.96342,840.2284 197.12146,842.3064 197.12638,844.0652"
       style="fill:none;stroke:#ffffff;stroke-width:5;stroke-miterlimit:9"
       inkscape:connector-curvature="0" />
    <circle
       id="203"
       cy="851.20001"
       cx="197.36"
       style="fill:#ffffff;stroke-width:2"
       r="3.6199999" />
    <text
       id="204"
       x="168"
       y="878"
       style="font-size:21px;font-family:'Microsoft Sans Serif';fill:#000000"
       clip-path="url(#206_text_clipper)">
      <tspan
         dy="15.75pt"
         id="208">Key == A</tspan>
    </text>
    <path
       d="M 70.358,658.4 C 77.997,670.1836 77.9628,685.364 70.27104,697.114"
       style="fill:none;stroke:#a9a9a9;stroke-width:4;stroke-miterlimit:9"
       id="226"
       inkscape:connector-curvature="0" />
    <circle
       id="227"
       cy="678"
       cx="38"
       style="fill:#5bb27e;stroke-width:2"
       r="30" />
    <path
       d="M 55.5,666.2 47.1174,671.0422 V 684.7874 L 55.5,689.6294 Z"
       style="fill:#ffffff;fill-rule:evenodd;stroke-width:2"
       id="228"
       inkscape:connector-curvature="0" />
    <path
       d="M 25.3854,666.4 H 39.4388 C 42.38,666.4 44.7478,668.8674 44.7478,671.9322 V 683.6468 C 44.7478,686.7116 42.38,689.1786 39.4388,689.1786 H 25.385402 C 22.444202,689.1786 20.076402,686.7116 20.076402,683.6468 V 671.9322 C 20.076402,668.8674 22.444202,666.4 25.385402,666.4 Z"
       style="fill:#ffffff;fill-rule:evenodd;stroke-width:2"
       id="229"
       inkscape:connector-curvature="0" />
    <text
       id="230"
       x="8"
       y="718"
       style="font-size:21px;font-family:'Microsoft Sans Serif';fill:#000000"
       clip-path="url(#232_text_clipper)">
      <tspan
         dy="15.75pt"
         id="234">Camera</tspan>
    </text>
    <text
       id="236"
       x="8"
       y="741.77002"
       style="font-size:21px;font-family:'Microsoft Sans Serif';fill:#000000"
       clip-path="url(#238_text_clipper)">
      <tspan
         dy="15.75pt"
         id="240">Capture</tspan>
    </text>
    <path
       d="M 70.358,818.4 C 77.997,830.1836 77.9628,845.364 70.27104,857.114"
       style="fill:none;stroke:#a9a9a9;stroke-width:4;stroke-miterlimit:9"
       id="242"
       inkscape:connector-curvature="0" />
    <circle
       id="243"
       cy="838"
       cx="38"
       style="fill:#5bb27e;stroke-width:2"
       r="30" />
    <path
       d="M 25.0808,845.052 C 24.309518,844.28072 24.853118,842.7468 25.5024,842.0974 26.1386,841.4612 27.7714,841.30956 28.6794,842.0719 L 33.0602,845.6105 33.64188,827.32829 C 33.64188,826.61171 34.84942,825.47975 36.10508,825.47975 37.59742,825.47975 38.73528,826.63219 38.73528,827.39073 L 39.1172,838.08654 48.129,841.49254 C 48.50066,841.62 48.99088,841.99072 48.99036,842.4445 L 48.99616,850.0997 46.22636,854.7591 V 857.0351 H 34.46436 V 854.7591 Z"
       style="fill:#ffffff;fill-rule:evenodd;stroke-width:2"
       id="244"
       inkscape:connector-curvature="0" />
    <path
       d="M 28.964,832.312 C 26.127202,827.7756 29.14608,821.1376 34.4298,820.2948 39.6328,819.04692 44.9664,824.0196 44.0864,829.297 L 43.95386,830.05182"
       style="fill:none;stroke:#ffffff;stroke-width:4;stroke-miterlimit:9"
       id="245"
       inkscape:connector-curvature="0" />
    <text
       id="246"
       x="8"
       y="878"
       style="font-size:21px;font-family:'Microsoft Sans Serif';fill:#000000"
       clip-path="url(#248_text_clipper)">
      <tspan
         dy="15.75pt"
         id="250">KeyDown</tspan>
    </text>
  </g>
</svg>
