<?xml version="1.0" encoding="UTF-8" standalone="no"?>
<svg
   xmlns:dc="http://purl.org/dc/elements/1.1/"
   xmlns:cc="http://creativecommons.org/ns#"
   xmlns:rdf="http://www.w3.org/1999/02/22-rdf-syntax-ns#"
   xmlns:svg="http://www.w3.org/2000/svg"
   xmlns="http://www.w3.org/2000/svg"
   xmlns:sodipodi="http://sodipodi.sourceforge.net/DTD/sodipodi-0.dtd"
   xmlns:inkscape="http://www.inkscape.org/namespaces/inkscape"
   width="237.40239"
   height="453.5433"
   id="SvgGdi_output"
   version="1.1"
   sodipodi:docname="subjects-publish.svg"
   inkscape:version="0.92.3 (2405546, 2018-03-11)"
   viewBox="0 0 118.70119 226.77165">
  <metadata
     id="metadata71">
    <rdf:RDF>
      <cc:Work
         rdf:about="">
        <dc:format>image/svg+xml</dc:format>
        <dc:type
           rdf:resource="http://purl.org/dc/dcmitype/StillImage" />
        <dc:title />
      </cc:Work>
    </rdf:RDF>
  </metadata>
  <sodipodi:namedview
     pagecolor="#ffffff"
     bordercolor="#666666"
     borderopacity="1"
     objecttolerance="10"
     gridtolerance="10"
     guidetolerance="10"
     inkscape:pageopacity="0"
     inkscape:pageshadow="2"
     inkscape:window-width="3000"
     inkscape:window-height="1875"
     id="namedview69"
     showgrid="false"
     fit-margin-top="0"
     fit-margin-left="0"
     fit-margin-right="0"
     fit-margin-bottom="0"
     inkscape:zoom="2.1034472"
     inkscape:cx="58.37739"
     inkscape:cy="158.60925"
     inkscape:window-x="-13"
     inkscape:window-y="-13"
     inkscape:window-maximized="1"
     inkscape:current-layer="SvgGdi_output"
     scale-x="0.5" />
  <defs
     id="clips_hatches_and_gradients">
    <clipPath
       id="409_text_clipper">
      <rect
         x="166"
         y="76"
         width="150.46001"
         height="26.389999"
         id="410" />
    </clipPath>
    <clipPath
       id="421_text_clipper">
      <rect
         x="166"
         y="236"
         width="134.53"
         height="26.389999"
         id="422" />
    </clipPath>
    <clipPath
       id="433_text_clipper">
      <rect
         x="166"
         y="396"
         width="103.3"
         height="26.389999"
         id="434" />
    </clipPath>
    <clipPath
       id="445_text_clipper">
      <rect
         x="6"
         y="76"
         width="83.940002"
         height="52.790001"
         id="446" />
    </clipPath>
    <clipPath
       id="451_text_clipper">
      <rect
         x="6"
         y="99.769997"
         width="83.940002"
         height="52.790001"
         id="452" />
    </clipPath>
    <clipPath
       id="464_text_clipper">
      <rect
         x="6"
         y="236"
         width="103.3"
         height="52.790001"
         id="465" />
    </clipPath>
    <clipPath
       id="470_text_clipper">
      <rect
         x="6"
         y="259.76999"
         width="103.3"
         height="52.790001"
         id="471" />
    </clipPath>
    <clipPath
       id="483_text_clipper">
      <rect
         x="6"
         y="396"
         width="103.3"
         height="52.790001"
         id="484" />
    </clipPath>
    <clipPath
       id="489_text_clipper">
      <rect
         x="6"
         y="419.76999"
         width="103.3"
         height="52.790001"
         id="490" />
    </clipPath>
    <clipPath
       id="161_text_clipper-9">
      <rect
         x="168"
         y="78"
         width="150.46001"
         height="26.389999"
         id="162-9" />
    </clipPath>
    <clipPath
       id="170_text_clipper-7">
      <rect
         x="168"
         y="238"
         width="134.53"
         height="26.389999"
         id="171-2" />
    </clipPath>
    <clipPath
       id="179_text_clipper-7">
      <rect
         x="168"
         y="398"
         width="103.3"
         height="26.389999"
         id="180-3" />
    </clipPath>
    <clipPath
       id="189_text_clipper-2">
      <rect
         x="8"
         y="78"
         width="83.940002"
         height="52.790001"
         id="190-3" />
    </clipPath>
    <clipPath
       id="195_text_clipper-7">
      <rect
         x="8"
         y="101.77"
         width="83.940002"
         height="52.790001"
         id="196-0" />
    </clipPath>
    <clipPath
       id="205_text_clipper-7">
      <rect
         x="8"
         y="238"
         width="103.3"
         height="52.790001"
         id="206-7" />
    </clipPath>
    <clipPath
       id="211_text_clipper-8">
      <rect
         x="8"
         y="261.76999"
         width="103.3"
         height="52.790001"
         id="212-2" />
    </clipPath>
    <clipPath
       id="221_text_clipper-6">
      <rect
         x="8"
         y="398"
         width="103.3"
         height="52.790001"
         id="222-9" />
    </clipPath>
    <clipPath
       id="227_text_clipper-5">
      <rect
         x="8"
         y="421.76999"
         width="103.3"
         height="52.790001"
         id="228-0" />
    </clipPath>
  </defs>
  <text
     xml:space="preserve"
     style="font-size:10px;line-height:1.25;font-family:sans-serif;letter-spacing:0px;word-spacing:0px;fill:#000000;stroke-width:0.5"
     x="23.301769"
     y="19.218113"
     id="text225"><tspan
       sodipodi:role="line"
       id="tspan223"
       x="23.301769"
       y="19.218113">Subjects</tspan><tspan
       sodipodi:role="line"
       x="23.301769"
       y="31.718113"
       id="tspan227">(Publish)</tspan></text>
  <g
     transform="matrix(0.39667783,0,0,0.39667783,-3.1734226,49.393719)"
     id="root_group-3">
    <line
       y1="38"
       style="fill:none;stroke:#a9a9a9;stroke-width:2;stroke-miterlimit:9"
       id="153"
       x2="160"
       y2="38"
       x1="76" />
    <line
       y1="198"
       style="fill:none;stroke:#a9a9a9;stroke-width:2;stroke-miterlimit:9"
       id="154"
       x2="160"
       y2="198"
       x1="76" />
    <line
       y1="358"
       style="fill:none;stroke:#a9a9a9;stroke-width:2;stroke-miterlimit:9"
       id="155"
       x2="160"
       y2="358"
       x1="76" />
    <path
       inkscape:connector-curvature="0"
       style="fill:none;stroke:#a9a9a9;stroke-width:2;stroke-miterlimit:9"
       transform="matrix(2,0,0,2,168,8)"
       id="156"
       d="M 10.158,33.2 C 3.4054,31.7591 -1.861,26.4692 -3.271,19.71" />
    <circle
       r="15"
       id="157"
       cy="15"
       cx="15"
       transform="matrix(2,0,0,2,168,8)"
       style="fill:#9b5bb3" />
    <path
       inkscape:connector-curvature="0"
       style="fill:#ffffff;fill-rule:evenodd"
       transform="matrix(2,0,0,2,168,8)"
       id="158"
       d="M 8.625,8.4 8.96875,8.9 13.28125,15.025 8.62505,21.6187 8.2813,22.1187 H 11.7501 L 11.84385,21.9937 15.00005,17.2124 15.4688,17.9 18.125,21.9937 18.21875,22.1187 H 21.71875 L 21.375,21.6187 16.625,14.8687 21.0312,8.9 21.4062,8.4 H 17.9688 L 17.87505,8.5562 15.68755,11.6187 15.6563,11.65 C 15.44045,11.9482 15.18092,12.3233 14.93755,12.6812 14.74069,12.357 14.55318,12.0383 14.2813,11.6187 L 12.2813,8.5562 12.18755,8.4 H 9.25005 Z" />
    <text
       id="159"
       x="168"
       y="78"
       style="font-size:21px;font-family:'Microsoft Sans Serif';fill:#000000"
       clip-path="url(#161_text_clipper-9)">
      <tspan
         dy="15.75pt"
         id="163">PublishSubject</tspan>
    </text>
    <circle
       r="15"
       id="165"
       cy="15"
       cx="15"
       transform="matrix(2,0,0,2,168,168)"
       style="fill:#449adf" />
    <path
       inkscape:connector-curvature="0"
       d="M 18.422,13 13.4357,18.5006 10.8556,15.9868 6.500101,20.5001 23.9571,20.48582 Z"
       style="fill:#ffffff;fill-rule:evenodd"
       transform="matrix(2,0,0,2,168,168)"
       id="166" />
    <circle
       r="2.75"
       id="167"
       cy="10.96"
       cx="10.92"
       transform="matrix(2,0,0,2,168,168)"
       style="fill:#ffffff" />
    <text
       id="168"
       x="168"
       y="238"
       style="font-size:21px;font-family:'Microsoft Sans Serif';fill:#000000"
       clip-path="url(#170_text_clipper-7)">
      <tspan
         dy="15.75pt"
         id="172">ConvertColor</tspan>
    </text>
    <circle
       r="15"
       id="174"
       cy="15"
       cx="15"
       transform="matrix(2,0,0,2,168,328)"
       style="fill:#449adf" />
    <path
       inkscape:connector-curvature="0"
       d="M 18.422,13 13.4357,18.5006 10.8556,15.9868 6.500101,20.5001 23.9571,20.48582 Z"
       style="fill:#ffffff;fill-rule:evenodd"
       transform="matrix(2,0,0,2,168,328)"
       id="175" />
    <circle
       r="2.75"
       id="176"
       cy="10.96"
       cx="10.92"
       transform="matrix(2,0,0,2,168,328)"
       style="fill:#ffffff" />
    <text
       id="177"
       x="168"
       y="398"
       style="font-size:21px;font-family:'Microsoft Sans Serif';fill:#000000"
       clip-path="url(#179_text_clipper-7)">
      <tspan
         dy="15.75pt"
         id="181">Threshold</tspan>
    </text>
    <path
       inkscape:connector-curvature="0"
       d="M 31.179,5.2 C 34.9985,11.0918 34.9814,18.682 31.13552,24.557"
       style="fill:none;stroke:#a9a9a9;stroke-width:2;stroke-miterlimit:9"
       transform="matrix(2,0,0,2,8,8)"
       id="183" />
    <circle
       r="15"
       id="184"
       cy="15"
       cx="15"
       transform="matrix(2,0,0,2,8,8)"
       style="fill:#5bb27e" />
    <path
       inkscape:connector-curvature="0"
       style="fill:#ffffff;fill-rule:evenodd"
       transform="matrix(2,0,0,2,8,8)"
       id="185"
       d="M 23.75,9.1 19.5587,11.5211 V 18.3937 L 23.75,20.8147 Z" />
    <path
       inkscape:connector-curvature="0"
       style="fill:#ffffff;fill-rule:evenodd"
       transform="matrix(2,0,0,2,8,8)"
       id="186"
       d="M 8.6927,9.2 H 15.7194 C 17.19,9.2 18.3739,10.4337 18.3739,11.9661 V 17.8234 C 18.3739,19.3558 17.19,20.5893 15.7194,20.5893 H 8.692701 C 7.222101,20.5893 6.038201,19.3558 6.038201,17.8234 V 11.9661 C 6.038201,10.4337 7.222101,9.199999 8.692701,9.199999 Z" />
    <text
       id="187"
       x="8"
       y="78"
       style="font-size:21px;font-family:'Microsoft Sans Serif';fill:#000000"
       clip-path="url(#189_text_clipper-2)">
      <tspan
         dy="15.75pt"
         id="191">Camera</tspan>
    </text>
    <text
       id="193"
       x="8"
       y="101.77"
       style="font-size:21px;font-family:'Microsoft Sans Serif';fill:#000000"
       clip-path="url(#195_text_clipper-7)">
      <tspan
         dy="15.75pt"
         id="197">Capture</tspan>
    </text>
    <path
       inkscape:connector-curvature="0"
       d="M 31.179,5.2 C 34.9985,11.0918 34.9814,18.682 31.13552,24.557"
       style="fill:none;stroke:#a9a9a9;stroke-width:2;stroke-miterlimit:9"
       transform="matrix(2,0,0,2,8,168)"
       id="199" />
    <circle
       r="15"
       id="200"
       cy="15"
       cx="15"
       transform="matrix(2,0,0,2,8,168)"
       style="fill:#5bb27e" />
    <path
       inkscape:connector-curvature="0"
       d="M 4.4028,13 4.93347,11.3266 C 6.15637,11.7667 7.04467,12.1477 7.598371,12.4698 7.45224,11.0476 7.37533,10.0696 7.36764,9.5352 H 9.040441 C 9.017365,10.3131 8.92891,11.2873 8.775101,12.4581 9.567261,12.0495 10.4748,11.6723 11.4977,11.3266 L 12.02837,13 C 11.05162,13.3302 10.09407,13.5502 9.155771,13.6601 9.624911,14.0766 10.28637,14.819 11.14007,15.8877 L 9.755671,16.8894 C 9.30959,16.2687 8.782761,15.4241 8.175171,14.3554 7.606041,15.4633 7.106171,16.308 6.675471,16.8894 L 5.314171,15.8877 C 6.206311,14.7642 6.844671,14.0216 7.229171,13.6601 6.237041,13.4637 5.294871,13.2437 4.402771,13 Z"
       style="fill:#ffffff;fill-rule:evenodd"
       transform="matrix(2,0,0,2,8,168)"
       id="201" />
    <path
       inkscape:connector-curvature="0"
       d="M 11.656,8.2 11.99975,8.7 16.31225,14.7937 11.65605,21.4187 11.28105,21.9187 H 14.74985 L 14.8436,21.7624 17.9998,17.0124 18.46855,17.7 21.15605,21.7624 21.2498,21.9187 H 24.7498 L 24.40605,21.4187 19.65605,14.6687 24.06225,8.699997 24.406,8.199997 H 20.9998 L 20.90605,8.324997 18.68725,11.4187 C 18.46251,11.7285 18.22333,12.1062 17.9685,12.4812 17.77046,12.1547 17.58677,11.8424 17.31225,11.4187 L 15.28105,8.356197 15.1873,8.199997 H 11.6561 Z"
       style="fill:#ffffff;fill-rule:evenodd"
       transform="matrix(2,0,0,2,8,168)"
       id="202" />
    <text
       id="203"
       x="8"
       y="238"
       style="font-size:21px;font-family:'Microsoft Sans Serif';fill:#000000"
       clip-path="url(#205_text_clipper-7)">
      <tspan
         dy="15.75pt"
         id="207">Subscribe</tspan>
    </text>
    <text
       id="209"
       x="8"
       y="261.76999"
       style="font-size:21px;font-family:'Microsoft Sans Serif';fill:#000000"
       clip-path="url(#211_text_clipper-8)">
      <tspan
         dy="15.75pt"
         id="213">Subject</tspan>
    </text>
    <path
       inkscape:connector-curvature="0"
       d="M 31.179,5.2 C 34.9985,11.0918 34.9814,18.682 31.13552,24.557"
       style="fill:none;stroke:#a9a9a9;stroke-width:2;stroke-miterlimit:9"
       transform="matrix(2,0,0,2,8,328)"
       id="215" />
    <circle
       r="15"
       id="216"
       cy="15"
       cx="15"
       transform="matrix(2,0,0,2,8,328)"
       style="fill:#5bb27e" />
    <path
       inkscape:connector-curvature="0"
       d="M 4.4028,13 4.93347,11.3266 C 6.15637,11.7667 7.04467,12.1477 7.598371,12.4698 7.45224,11.0476 7.37533,10.0696 7.36764,9.5352 H 9.040441 C 9.017365,10.3131 8.92891,11.2873 8.775101,12.4581 9.567261,12.0495 10.4748,11.6723 11.4977,11.3266 L 12.02837,13 C 11.05162,13.3302 10.09407,13.5502 9.155771,13.6601 9.624911,14.0766 10.28637,14.819 11.14007,15.8877 L 9.755671,16.8894 C 9.30959,16.2687 8.782761,15.4241 8.175171,14.3554 7.606041,15.4633 7.106171,16.308 6.675471,16.8894 L 5.314171,15.8877 C 6.206311,14.7642 6.844671,14.0216 7.229171,13.6601 6.237041,13.4637 5.294871,13.2437 4.402771,13 Z"
       style="fill:#ffffff;fill-rule:evenodd"
       transform="matrix(2,0,0,2,8,328)"
       id="217" />
    <path
       inkscape:connector-curvature="0"
       d="M 11.656,8.2 11.99975,8.7 16.31225,14.7937 11.65605,21.4187 11.28105,21.9187 H 14.74985 L 14.8436,21.7624 17.9998,17.0124 18.46855,17.7 21.15605,21.7624 21.2498,21.9187 H 24.7498 L 24.40605,21.4187 19.65605,14.6687 24.06225,8.699997 24.406,8.199997 H 20.9998 L 20.90605,8.324997 18.68725,11.4187 C 18.46251,11.7285 18.22333,12.1062 17.9685,12.4812 17.77046,12.1547 17.58677,11.8424 17.31225,11.4187 L 15.28105,8.356197 15.1873,8.199997 H 11.6561 Z"
       style="fill:#ffffff;fill-rule:evenodd"
       transform="matrix(2,0,0,2,8,328)"
       id="218" />
    <text
       id="219"
       x="8"
       y="398"
       style="font-size:21px;font-family:'Microsoft Sans Serif';fill:#000000"
       clip-path="url(#221_text_clipper-6)">
      <tspan
         dy="15.75pt"
         id="223">Subscribe</tspan>
    </text>
    <text
       id="225"
       x="8"
       y="421.76999"
       style="font-size:21px;font-family:'Microsoft Sans Serif';fill:#000000"
       clip-path="url(#227_text_clipper-5)">
      <tspan
         dy="15.75pt"
         id="229">Subject</tspan>
    </text>
  </g>
</svg>
